<mxfile modified="2024-04-01T11:37:06.037Z" host="Electron" agent="Mozilla/5.0 (Windows NT 10.0; Win64; x64) AppleWebKit/537.36 (KHTML, like Gecko) draw.io/24.1.0 Chrome/120.0.6099.109 Electron/28.1.0 Safari/537.36" etag="qnqBugS7DRudg_H0uLZr" version="24.1.0" type="device">
  <diagram id="Ht1M8jgEwFfnCIfOTk4-" name="Page-1">
    <mxGraphModel dx="880" dy="686" grid="1" gridSize="10" guides="1" tooltips="1" connect="1" arrows="1" fold="1" page="0" pageScale="1" pageWidth="827" pageHeight="1169" math="0" shadow="0">
      <root>
        <mxCell id="0" />
        <mxCell id="1" parent="0" />
        <mxCell id="2fjOt8oWZh0gIr6PStJO-1" value="AWS Lambda&lt;div&gt;Runtime API&lt;/div&gt;" style="sketch=0;points=[[0,0,0],[0.25,0,0],[0.5,0,0],[0.75,0,0],[1,0,0],[0,1,0],[0.25,1,0],[0.5,1,0],[0.75,1,0],[1,1,0],[0,0.25,0],[0,0.5,0],[0,0.75,0],[1,0.25,0],[1,0.5,0],[1,0.75,0]];outlineConnect=0;fontColor=#232F3E;fillColor=#ED7100;strokeColor=#ffffff;dashed=0;verticalLabelPosition=bottom;verticalAlign=top;align=center;html=1;fontSize=12;fontStyle=1;aspect=fixed;shape=mxgraph.aws4.resourceIcon;resIcon=mxgraph.aws4.lambda;" parent="1" vertex="1">
          <mxGeometry x="80" y="200" width="80" height="80" as="geometry" />
        </mxCell>
        <mxCell id="2fjOt8oWZh0gIr6PStJO-5" value="&amp;nbsp;Runtime API&amp;nbsp;" style="edgeStyle=orthogonalEdgeStyle;rounded=0;orthogonalLoop=1;jettySize=auto;html=1;startArrow=classic;startFill=1;fontStyle=1" parent="1" source="2fjOt8oWZh0gIr6PStJO-2" target="2fjOt8oWZh0gIr6PStJO-3" edge="1">
          <mxGeometry relative="1" as="geometry" />
        </mxCell>
        <mxCell id="2fjOt8oWZh0gIr6PStJO-2" value="AWS Lambda&lt;div&gt;Handler Process&lt;/div&gt;&lt;div&gt;(Child Process)&lt;/div&gt;" style="sketch=0;outlineConnect=0;fontColor=#232F3E;gradientColor=none;fillColor=#ED7100;strokeColor=none;dashed=0;verticalLabelPosition=bottom;verticalAlign=top;align=center;html=1;fontSize=12;fontStyle=1;aspect=fixed;pointerEvents=1;shape=mxgraph.aws4.lambda_function;" parent="1" vertex="1">
          <mxGeometry x="480" y="200" width="80" height="80" as="geometry" />
        </mxCell>
        <mxCell id="2fjOt8oWZh0gIr6PStJO-4" value="&amp;nbsp;Runtime API&amp;nbsp;" style="edgeStyle=orthogonalEdgeStyle;rounded=0;orthogonalLoop=1;jettySize=auto;html=1;startArrow=classic;startFill=1;fontStyle=1" parent="1" source="2fjOt8oWZh0gIr6PStJO-3" target="2fjOt8oWZh0gIr6PStJO-1" edge="1">
          <mxGeometry relative="1" as="geometry" />
        </mxCell>
        <mxCell id="2fjOt8oWZh0gIr6PStJO-3" value="AWS Lambda&lt;div&gt;Runtime Proxy&lt;/div&gt;&lt;div&gt;(Parent Process)&lt;/div&gt;" style="sketch=0;outlineConnect=0;fontColor=#232F3E;gradientColor=none;fillColor=#007FFF;strokeColor=none;dashed=0;verticalLabelPosition=bottom;verticalAlign=top;align=center;html=1;fontSize=12;fontStyle=1;aspect=fixed;pointerEvents=1;shape=mxgraph.aws4.lambda_function;" parent="1" vertex="1">
          <mxGeometry x="280" y="200" width="80" height="80" as="geometry" />
        </mxCell>
        <mxCell id="-sQhjU18eMcHrWtSkJ9b-1" value="AWS Lambda&lt;div&gt;Runtime API&lt;/div&gt;" style="sketch=0;points=[[0,0,0],[0.25,0,0],[0.5,0,0],[0.75,0,0],[1,0,0],[0,1,0],[0.25,1,0],[0.5,1,0],[0.75,1,0],[1,1,0],[0,0.25,0],[0,0.5,0],[0,0.75,0],[1,0.25,0],[1,0.5,0],[1,0.75,0]];outlineConnect=0;fontColor=#232F3E;fillColor=#ED7100;strokeColor=#ffffff;dashed=0;verticalLabelPosition=bottom;verticalAlign=top;align=center;html=1;fontSize=12;fontStyle=1;aspect=fixed;shape=mxgraph.aws4.resourceIcon;resIcon=mxgraph.aws4.lambda;" vertex="1" parent="1">
          <mxGeometry y="520" width="80" height="80" as="geometry" />
        </mxCell>
        <mxCell id="-sQhjU18eMcHrWtSkJ9b-6" value="&amp;nbsp;Runtime API&amp;nbsp;" style="edgeStyle=orthogonalEdgeStyle;rounded=0;orthogonalLoop=1;jettySize=auto;html=1;fontStyle=1" edge="1" parent="1" source="-sQhjU18eMcHrWtSkJ9b-2" target="-sQhjU18eMcHrWtSkJ9b-1">
          <mxGeometry relative="1" as="geometry" />
        </mxCell>
        <mxCell id="-sQhjU18eMcHrWtSkJ9b-2" value="LambdaRuntimeApiClient" style="rounded=0;whiteSpace=wrap;html=1;fontStyle=1" vertex="1" parent="1">
          <mxGeometry x="240" y="540" width="200" height="40" as="geometry" />
        </mxCell>
        <mxCell id="-sQhjU18eMcHrWtSkJ9b-3" value="MockLambdaRuntimeApiServer" style="rounded=0;whiteSpace=wrap;html=1;fontStyle=1" vertex="1" parent="1">
          <mxGeometry x="240" y="620" width="200" height="40" as="geometry" />
        </mxCell>
        <mxCell id="-sQhjU18eMcHrWtSkJ9b-5" value="&lt;b&gt;&amp;nbsp;Runtime API&amp;nbsp;&lt;/b&gt;" style="edgeStyle=orthogonalEdgeStyle;rounded=0;orthogonalLoop=1;jettySize=auto;html=1;" edge="1" parent="1" source="-sQhjU18eMcHrWtSkJ9b-4" target="-sQhjU18eMcHrWtSkJ9b-3">
          <mxGeometry relative="1" as="geometry" />
        </mxCell>
        <mxCell id="-sQhjU18eMcHrWtSkJ9b-4" value="AWS Lambda&lt;div&gt;Handler Process&lt;/div&gt;&lt;div&gt;(Child Process)&lt;/div&gt;" style="sketch=0;outlineConnect=0;fontColor=#232F3E;gradientColor=none;fillColor=#ED7100;strokeColor=none;dashed=0;verticalLabelPosition=bottom;verticalAlign=top;align=center;html=1;fontSize=12;fontStyle=1;aspect=fixed;pointerEvents=1;shape=mxgraph.aws4.lambda_function;" vertex="1" parent="1">
          <mxGeometry x="560" y="600" width="80" height="80" as="geometry" />
        </mxCell>
        <mxCell id="-sQhjU18eMcHrWtSkJ9b-7" value="AWS Lambda Runtime Proxy" style="fillColor=none;strokeColor=#007FFF;dashed=1;verticalAlign=top;fontStyle=1;fontColor=#007FFF;whiteSpace=wrap;html=1;strokeWidth=2;" vertex="1" parent="1">
          <mxGeometry x="220" y="480" width="450" height="270" as="geometry" />
        </mxCell>
      </root>
    </mxGraphModel>
  </diagram>
</mxfile>
